<svg width="8" height="12" viewBox="0 0 8 12" fill="none" xmlns="http://www.w3.org/2000/svg">
<g clip-path="url(#clip0_4108_2021)">
<path d="M7.39442 1.78624C6.69747 0.716828 5.54128 0.0675432 4.22232 0.00519563C4.14911 0.00197405 4.07456 0 3.99981 0C3.92487 0 3.8507 0.00197405 3.77691 0.00519563C2.45797 0.0675432 1.30196 0.716828 0.605017 1.78624C-0.109418 2.88325 -0.196459 4.23144 0.372314 5.3933L3.55522 11.7363C3.73166 12.0879 4.26794 12.0879 4.44436 11.7363L7.62826 5.39079C8.19646 4.23072 8.10923 2.88289 7.39442 1.78624ZM3.99981 6.1189C2.59862 6.1189 1.45875 5.05593 1.45875 3.74949C1.45875 2.44322 2.59861 1.38025 3.99981 1.38025C5.40081 1.38025 6.54087 2.44322 6.54087 3.74949C6.54087 5.05593 5.40081 6.1189 3.99981 6.1189Z" fill="white"/>
<path d="M4.00018 1.90918C2.91182 1.90918 2.02637 2.73476 2.02637 3.74953C2.02637 4.7643 2.91182 5.59005 4.00018 5.59005C5.08854 5.59005 5.97399 4.7643 5.97399 3.74953C5.97399 2.73475 5.08854 1.90918 4.00018 1.90918Z" fill="white"/>
</g>
<defs>
<clipPath id="clip0_4108_2021">
<rect width="8" height="12" fill="white"/>
</clipPath>
</defs>
</svg>
